# xmcd CD database file
#
# Track frame offsets:
#	150
#	21450
#	41663
#	62925
#
# Disc length: 1104 seconds
#
# Revision: 3
# Processed by: cddbd v1.5PL3 Copyright (c) Steve Scherf et al.
# Submitted via: CDex 1.50Beta7
#
DISCID=35044e04
DTITLE=Various Artist - Sweet Caramel Town
DYEAR=2003
DGENRE=JPop
TTITLE0=きゃんりにんさん(井上喜久子) - Sweet Caramel Town
TTITLE1=キャラメルポリス(井上喜久子) - キャラメルポリスのテーマ
TTITLE2=きゃんりにんさん(井上喜久子) - Sweet Caramel Town (カラオケ)
TTITLE3=キャラメルポリス(井上喜久子) - キャラメルポリスのテーマ (カラオケ)
EXTD=YEAR: 2003
EXTT0=
EXTT1=
EXTT2=
EXTT3=
PLAYORDER=
